<?xml version="1.0" encoding="utf-8" ?>
<svg baseProfile="tiny" height="200" version="1.2" width="200" xmlns="http://www.w3.org/2000/svg" xmlns:ev="http://www.w3.org/2001/xml-events" xmlns:xlink="http://www.w3.org/1999/xlink"><defs /><rect fill="none" height="100%" width="100%" x="0" y="0" /><rect fill="none" height="40" stroke="black" stroke-width="2" width="40" x="60" y="60" /><line stroke="black" stroke-width="3" x1="100" x2="110" y1="80" y2="80" /><rect fill="lightblue" height="20" stroke="black" stroke-width="1" width="60" x="110" y="70" /><polyline fill="none" points="0,181 4,185 8,171 12,170 16,187 20,190 24,188 28,185 32,182 36,171 40,189 44,190 48,177 52,176 56,177 60,172 64,171 68,190 72,187 76,178 80,182 84,190 88,178 92,186 96,174 100,187 104,179 108,183 112,178 116,180 120,184 124,188 128,176 132,175 136,179 140,189 144,184 148,182 152,181 156,172 160,176 164,186 168,190 172,173 176,183 180,181 184,181 188,176 192,176 196,185" stroke="blue" stroke-width="2" /><line stroke="green" stroke-width="3" x1="80" x2="80" y1="100" y2="100"><animate attributeName="y2" dur="1s" from="100" repeatCount="indefinite" to="180" /></line></svg>