<?xml version="1.0" encoding="utf-8" ?>
<svg baseProfile="tiny" height="200" version="1.2" viewBox="0 50 200 150" width="200" xmlns="http://www.w3.org/2000/svg" xmlns:ev="http://www.w3.org/2001/xml-events" xmlns:xlink="http://www.w3.org/1999/xlink"><defs /><rect fill="white" height="40" stroke="black" stroke-width="2" width="40" x="60" y="60" /><line stroke="black" stroke-width="3" x1="100" x2="110" y1="80" y2="80" /><rect fill="lightblue" height="20" stroke="black" stroke-width="1" width="60" x="110" y="70" /><polyline fill="white" points="0,178 4,182 8,177 12,174 16,182 20,190 24,187 28,175 32,180 36,178 40,176 44,186 48,173 52,170 56,175 60,183 64,171 68,185 72,184 76,170 80,187 84,182 88,184 92,172 96,179 100,181 104,174 108,189 112,182 116,172 120,171 124,173 128,185 132,185 136,179 140,184 144,183 148,182 152,174 156,184 160,181 164,174 168,172 172,173 176,171 180,187 184,178 188,180 192,176 196,175" stroke="blue" stroke-width="2" /><line stroke="green" stroke-width="3" x1="80" x2="80" y1="100" y2="100"><animate attributeName="y2" dur="1s" from="100" repeatCount="indefinite" to="180" /></line></svg>