<?xml version="1.0" encoding="utf-8" ?>
<svg baseProfile="tiny" height="200" version="1.2" viewBox="0 50 200 150" width="200" xmlns="http://www.w3.org/2000/svg" xmlns:ev="http://www.w3.org/2001/xml-events" xmlns:xlink="http://www.w3.org/1999/xlink"><defs /><rect fill="white" height="40" stroke="black" stroke-width="2" width="40" x="60" y="60" /><line stroke="black" stroke-width="3" x1="100" x2="110" y1="80" y2="80" /><rect fill="lightblue" height="20" stroke="black" stroke-width="1" width="60" x="110" y="70" /><polygon fill="white" points="0,180 4,181 8,175 12,174 16,190 20,170 24,183 28,182 32,182 36,179 40,185 44,175 48,171 52,175 56,170 60,186 64,180 68,187 72,170 76,190 80,188 84,179 88,181 92,174 96,176 100,178 104,170 108,179 112,183 116,187 120,175 124,185 128,174 132,180 136,180 140,186 144,175 148,185 152,171 156,170 160,185 164,190 168,177 172,184 176,174 180,171 184,182 188,189 192,173 196,182 200,200 0,200" stroke="blue" stroke-width="2" /><line stroke="green" stroke-width="3" x1="80" x2="80" y1="100" y2="100"><animate attributeName="y2" dur="1s" from="100" repeatCount="indefinite" to="180" /></line></svg>