<?xml version="1.0" encoding="utf-8" ?>
<svg baseProfile="tiny" height="200" version="1.2" viewBox="0 50 200 150" width="200" xmlns="http://www.w3.org/2000/svg" xmlns:ev="http://www.w3.org/2001/xml-events" xmlns:xlink="http://www.w3.org/1999/xlink"><defs /><rect fill="none" height="40" stroke="black" stroke-width="2" width="40" x="60" y="60" /><line stroke="black" stroke-width="3" x1="100" x2="110" y1="80" y2="80" /><rect fill="lightblue" height="20" stroke="black" stroke-width="1" width="60" x="110" y="70" /><polyline fill="none" points="0,170 4,176 8,184 12,189 16,174 20,171 24,178 28,184 32,174 36,186 40,177 44,173 48,187 52,172 56,177 60,177 64,183 68,174 72,172 76,176 80,171 84,181 88,186 92,189 96,179 100,175 104,179 108,179 112,183 116,175 120,172 124,182 128,171 132,171 136,177 140,189 144,186 148,180 152,175 156,190 160,170 164,189 168,175 172,171 176,187 180,172 184,182 188,174 192,182 196,185" stroke="blue" stroke-width="2" /><line stroke="green" stroke-width="3" x1="80" x2="80" y1="100" y2="100"><animate attributeName="y2" dur="1s" from="100" repeatCount="indefinite" to="180" /></line></svg>